<svg width="40" height="45" viewBox="0 0 40 45" fill="none" xmlns="http://www.w3.org/2000/svg">
<path d="M33.75 8.4375H8.75C8.08696 8.4375 7.45107 8.73382 6.98223 9.26126C6.51339 9.78871 6.25 10.5041 6.25 11.25V32.3438C6.25 32.7167 6.1183 33.0744 5.88388 33.3381C5.64946 33.6018 5.33152 33.75 5 33.75C4.66848 33.75 4.35054 33.6018 4.11612 33.3381C3.8817 33.0744 3.75 32.7167 3.75 32.3438V15.4688C3.75 15.0958 3.6183 14.7381 3.38388 14.4744C3.14946 14.2107 2.83152 14.0625 2.5 14.0625C2.16848 14.0625 1.85054 14.2107 1.61612 14.4744C1.3817 14.7381 1.25 15.0958 1.25 15.4688V32.3438C1.25 33.4626 1.64509 34.5357 2.34835 35.3269C3.05161 36.118 4.00544 36.5625 5 36.5625H32.5C33.4933 36.5579 34.4447 36.1119 35.1471 35.3217C35.8495 34.5316 36.2459 33.4612 36.25 32.3438V11.25C36.25 10.5041 35.9866 9.78871 35.5178 9.26126C35.0489 8.73382 34.413 8.4375 33.75 8.4375ZM27.5 26.7188H15C14.6685 26.7188 14.3505 26.5706 14.1161 26.3069C13.8817 26.0431 13.75 25.6855 13.75 25.3125C13.75 24.9395 13.8817 24.5819 14.1161 24.3181C14.3505 24.0544 14.6685 23.9062 15 23.9062H27.5C27.8315 23.9062 28.1495 24.0544 28.3839 24.3181C28.6183 24.5819 28.75 24.9395 28.75 25.3125C28.75 25.6855 28.6183 26.0431 28.3839 26.3069C28.1495 26.5706 27.8315 26.7188 27.5 26.7188ZM27.5 21.0938H15C14.6685 21.0938 14.3505 20.9456 14.1161 20.6819C13.8817 20.4181 13.75 20.0605 13.75 19.6875C13.75 19.3145 13.8817 18.9569 14.1161 18.6931C14.3505 18.4294 14.6685 18.2812 15 18.2812H27.5C27.8315 18.2812 28.1495 18.4294 28.3839 18.6931C28.6183 18.9569 28.75 19.3145 28.75 19.6875C28.75 20.0605 28.6183 20.4181 28.3839 20.6819C28.1495 20.9456 27.8315 21.0938 27.5 21.0938Z" fill="#0B7DD2"/>
</svg>
