<svg width="33" height="33" viewBox="0 0 33 33" fill="none" xmlns="http://www.w3.org/2000/svg">
<path d="M13.2682 22C14.025 22.55 15.125 23.1 16.5 23.1C17.875 23.1 18.975 22.55 19.7318 22" stroke="#B1B1B1" stroke-width="2" stroke-miterlimit="10" stroke-linecap="round" stroke-linejoin="round"/>
<path d="M22 13.2V15.4" stroke="#B1B1B1" stroke-width="2" stroke-miterlimit="10" stroke-linecap="round" stroke-linejoin="round"/>
<path d="M11 13.2V15.4" stroke="#B1B1B1" stroke-width="2" stroke-miterlimit="10" stroke-linecap="round" stroke-linejoin="round"/>
<path d="M16.5 13.2V17.6C16.5 18.2072 16.0072 18.7 15.4 18.7" stroke="#B1B1B1" stroke-width="2" stroke-miterlimit="10" stroke-linecap="round" stroke-linejoin="round"/>
<path d="M28.6 9.90002V6.60002C28.6 5.38452 27.6155 4.40002 26.4 4.40002H23.1" stroke="#B1B1B1" stroke-width="2" stroke-miterlimit="10" stroke-linecap="round" stroke-linejoin="round"/>
<path d="M9.89999 4.40002H6.59999C5.38449 4.40002 4.39999 5.38452 4.39999 6.60002V9.90002" stroke="#B1B1B1" stroke-width="2" stroke-miterlimit="10" stroke-linecap="round" stroke-linejoin="round"/>
<path d="M23.1 28.6H26.4C27.6155 28.6 28.6 27.6155 28.6 26.4V23.1" stroke="#B1B1B1" stroke-width="2" stroke-miterlimit="10" stroke-linecap="round" stroke-linejoin="round"/>
<path d="M4.39999 23.1V26.4C4.39999 27.6155 5.38449 28.6 6.59999 28.6H9.89999" stroke="#B1B1B1" stroke-width="2" stroke-miterlimit="10" stroke-linecap="round" stroke-linejoin="round"/>
</svg>
