<svg width="129" height="29" viewBox="0 0 129 29" fill="none" xmlns="http://www.w3.org/2000/svg">
<path fill-rule="evenodd" clip-rule="evenodd" d="M39.1587 9.62282L35.8433 17.8839H40.4301L39.1735 9.58778L39.1587 9.62282ZM21.5963 28.5851L35.1963 0.588593H45.4756L51.2108 28.5851H42.1828L41.5194 24.8548H32.7616L30.7466 28.5851H21.5963ZM55.483 28.5851L59.4228 0.588593H68.5186L64.5796 28.5851H55.483V28.5851ZM115.974 9.58778L112.646 17.8839H117.232L115.974 9.58778V9.58778ZM98.3978 28.5851L111.998 0.588593H122.276L128.011 28.5851H118.983L118.32 24.8548H109.562L107.547 28.5851H98.3978ZM78.2909 15.4943H89.6867L97.4961 28.4286H86.098L78.2909 15.4943Z" fill="white"/>
<path fill-rule="evenodd" clip-rule="evenodd" d="M79.4752 13.5073H91.2548L101.485 0.629082H89.7053L79.4752 13.5073V13.5073ZM67.6956 28.5073H79.4752L89.7053 15.4702H77.9257L67.6956 28.5073V28.5073Z" fill="#DB8135"/>
<path fill-rule="evenodd" clip-rule="evenodd" d="M71.9429 0.471799H82.9377L90.4699 13.5073H79.4752L71.9429 0.471799ZM21.8665 1.59145L20.9913 9.82526C17.6386 5.20109 9.86965 8.39183 9.25922 14.1528C8.48372 21.4655 15.9615 23.1714 20.0313 18.8649L19.1538 27.1182C17.9392 27.7162 16.7518 28.1779 15.58 28.4917C14.4401 28.8003 13.267 28.9697 12.0864 28.9962C10.6288 29.0266 9.30905 28.8732 8.11855 28.5384C6.95814 28.2232 5.8666 27.6946 4.89977 26.9796C3.06225 25.6365 1.73394 23.929 0.914839 21.8501C0.0972968 19.765 -0.172881 17.4128 0.106641 14.7835C0.330881 12.6711 0.864229 10.744 1.71214 8.99682C2.55304 7.24961 3.71784 5.66358 5.2011 4.22471C6.60337 2.85201 8.13023 1.81724 9.78322 1.11337C11.4284 0.416516 13.2255 0.0443433 15.1673 0.00385554C16.3122 -0.0237144 17.4558 0.0966674 18.5699 0.362016C19.6794 0.627523 20.7741 1.04175 21.8665 1.59145V1.59145Z" fill="white"/>
</svg>
