<svg width="39" height="40" viewBox="0 0 39 40" fill="none" xmlns="http://www.w3.org/2000/svg">
<path d="M30.417 29.828C28.8855 29.828 27.45 29.239 26.3658 28.1547L20.5256 22.3146C20.1242 21.9131 19.3956 21.9131 18.9941 22.3146L13.13 28.1787C12.0457 29.263 10.6102 29.852 9.07875 29.852H7.92468L15.3443 37.2716C17.6525 39.5798 21.4201 39.5798 23.7282 37.2716L31.1697 29.8302L30.417 29.828Z" fill="#0B7DD2"/>
<path d="M9.05475 9.14856C10.5862 9.14856 12.0217 9.73759 13.106 10.8218L18.9701 16.686C19.3934 17.1092 20.0762 17.1092 20.5016 16.686L26.3658 10.8458C27.45 9.76159 28.8855 9.17256 30.417 9.17256H31.1239L23.6824 1.7311C21.3743 -0.577034 17.6066 -0.577034 15.2985 1.7311L7.87668 9.14856H9.05475Z" fill="#0B7DD2"/>
<path d="M37.2694 15.3203L32.771 10.8218C32.6772 10.8698 32.5594 10.8917 32.4416 10.8917H30.393C29.3328 10.8917 28.2965 11.3149 27.5678 12.0697L21.7255 17.9099C21.1845 18.4509 20.4536 18.7345 19.7468 18.7345C19.016 18.7345 18.3091 18.4509 17.7681 17.9099L11.9039 12.0457C11.1513 11.2931 10.115 10.8677 9.07875 10.8677H6.55899C6.44119 10.8677 6.34738 10.8437 6.25357 10.7979L1.7311 15.3203C-0.577034 17.6285 -0.577034 21.3961 1.7311 23.7042L6.22957 28.2027C6.32338 28.1547 6.41719 28.1329 6.535 28.1329H9.05475C10.115 28.1329 11.1513 27.7096 11.8799 26.9548L17.7441 21.0907C18.8043 20.0304 20.6652 20.0304 21.7233 21.0907L27.5635 26.9308C28.3161 27.6835 29.3524 28.1089 30.3887 28.1089H32.4372C32.555 28.1089 32.6488 28.1329 32.7666 28.1787L37.2651 23.6802C39.5776 21.3721 39.5776 17.6285 37.2694 15.3203Z" fill="#0B7DD2"/>
</svg>
